# xmcd
#
# Track frame offsets:
#	150
#	12504
#	24643
#	36037
#	47517
#	60397
#	70770
#	82974
#	92748
#	104774
#	118363
#	132020
#	145164
#	158885
#	172936
#	186001
#	198260
#	213061
#
# Disc length: 3031 seconds
# Revision: 1
# Processed by: cddbd v1.5.2PL0 Copyright (c) Steve Scherf et al.
# Submitted via: dBpowerAMP V12.0
#
DISCID=ee0bd512
DTITLE=Loretta Lynn - 50th Anniversary Collection, CD02 - CD02
DYEAR=2010
DGENRE=Country
TTITLE0=Here I Am Again [Single Version]
TTITLE1=Rated -X- [Single Version]
TTITLE2=Love Is the Foundation [Single Version]
TTITLE3=Louisiana Woman, Mississippi Man [Single Version]
TTITLE4=Hey Loretta [Single Version]
TTITLE5=They Don't Make 'Em Like My Daddy Anymore [Single Version]
TTITLE6=As Soon as I Hang Up the Phone [Single Version]
TTITLE7=Trouble in Paradise [Single Version]
TTITLE8=The Pill [Single Version]
TTITLE9=Feelins' [Single Version]
TTITLE10=When the Tingle Becomes a Chill [Single Version]
TTITLE11=The Letter [Single Version]
TTITLE12=Somebody Somewhere (Don't Know What He's Missin' Tonight) [Single Versi
TTITLE13=She's Got You [Single Version]
TTITLE14=I Can't Love You Enough [Single Version]
TTITLE15=Out of My Head and Back in My Bed [Single Version]
TTITLE16=I Can't Feel You Anymore [Single Version]
TTITLE17=I Still Believe in Waltzes [Single Version]
EXTD=
EXTT0=
EXTT1=
EXTT2=
EXTT3=
EXTT4=
EXTT5=
EXTT6=
EXTT7=
EXTT8=
EXTT9=
EXTT10=
EXTT11=
EXTT12=
EXTT13=
EXTT14=
EXTT15=
EXTT16=
EXTT17=
PLAYORDER=
